<svg width="23" height="22" viewBox="0 0 23 22" fill="none" xmlns="http://www.w3.org/2000/svg">
<path fill-rule="evenodd" clip-rule="evenodd" d="M0.81132 7.21015L10.0364 0.391648C10.7429 -0.130549 11.7074 -0.130549 12.4139 0.391648L21.639 7.21015C22.2953 7.69524 22.591 8.53044 22.3862 9.32043L19.6135 20.0149C19.3848 20.897 18.5888 21.513 17.6775 21.513H4.77274C3.86149 21.513 3.06544 20.897 2.83675 20.0149L0.064108 9.32043C-0.140705 8.53044 0.155022 7.69524 0.81132 7.21015ZM11.2251 14.013C12.882 14.013 14.2251 12.6698 14.2251 11.013C14.2251 9.35613 12.882 8.01298 11.2251 8.01298C9.56829 8.01298 8.22514 9.35613 8.22514 11.013C8.22514 12.6698 9.56829 14.013 11.2251 14.013Z" fill="white"/>
</svg>
