<svg width="33" height="24" viewBox="0 0 33 24" fill="none" xmlns="http://www.w3.org/2000/svg">
<path fill-rule="evenodd" clip-rule="evenodd" d="M3 0.965515C1.34315 0.965515 0 2.30866 0 3.96551V17.7287C0 19.3855 1.34314 20.7287 3 20.7287L12.6258 20.7287C13.2718 20.7287 13.878 21.0407 14.2534 21.5663L15.6862 23.5727C16.085 24.1311 16.915 24.1311 17.3138 23.5727L18.7466 21.5663C19.122 21.0407 19.7282 20.7287 20.3742 20.7287H30C31.6569 20.7287 33 19.3855 33 17.7287V3.96552C33 2.30866 31.6569 0.965515 30 0.965515H3ZM8.31018 12.6404C9.00054 12.6404 9.56018 12.0807 9.56018 11.3904C9.56018 10.7 9.00054 10.1404 8.31018 10.1404C7.61982 10.1404 7.06018 10.7 7.06018 11.3904C7.06018 12.0807 7.61982 12.6404 8.31018 12.6404ZM17.5 11.3904C17.5 12.0807 16.9404 12.6404 16.25 12.6404C15.5596 12.6404 15 12.0807 15 11.3904C15 10.7 15.5596 10.1404 16.25 10.1404C16.9404 10.1404 17.5 10.7 17.5 11.3904ZM23.379 12.6404C24.0694 12.6404 24.629 12.0807 24.629 11.3904C24.629 10.7 24.0694 10.1404 23.379 10.1404C22.6887 10.1404 22.129 10.7 22.129 11.3904C22.129 12.0807 22.6887 12.6404 23.379 12.6404Z" fill="white"/>
</svg>
